<mxfile host="app.diagrams.net" agent="Mozilla/5.0 (Windows NT 10.0; Win64; x64) AppleWebKit/537.36 (KHTML, like Gecko) Chrome/135.0.0.0 Safari/537.36" version="26.2.12" pages="2">
  <diagram name="Page-1" id="t1KLAomDvQW_QLga0Nws">
    <mxGraphModel dx="1428" dy="749" grid="1" gridSize="10" guides="1" tooltips="1" connect="1" arrows="1" fold="1" page="1" pageScale="1" pageWidth="850" pageHeight="1100" math="0" shadow="0">
      <root>
        <mxCell id="0" />
        <mxCell id="1" parent="0" />
        <mxCell id="0JFA8KRPkaBfpKAx8EYZ-1" value="" style="rounded=0;whiteSpace=wrap;html=1;fillColor=#FFFFFF;fontColor=#333333;strokeColor=#666666;labelBackgroundColor=none;" vertex="1" parent="1">
          <mxGeometry x="59" y="140" width="621" height="60" as="geometry" />
        </mxCell>
        <mxCell id="0JFA8KRPkaBfpKAx8EYZ-2" value="" style="rounded=0;whiteSpace=wrap;html=1;fillColor=#FFFFFF;fontColor=#333333;strokeColor=#666666;labelBackgroundColor=none;" vertex="1" parent="1">
          <mxGeometry x="62" y="820" width="617.5" height="60" as="geometry" />
        </mxCell>
        <mxCell id="0JFA8KRPkaBfpKAx8EYZ-3" value="&lt;div style=&quot;&quot;&gt;&lt;br&gt;&lt;/div&gt;" style="rounded=0;whiteSpace=wrap;html=1;align=center;fillColor=#FFFFFF;fontColor=#333333;strokeColor=#666666;labelBackgroundColor=none;" vertex="1" parent="1">
          <mxGeometry x="62" y="260" width="618" height="480" as="geometry" />
        </mxCell>
        <mxCell id="0JFA8KRPkaBfpKAx8EYZ-5" value="" style="rounded=0;whiteSpace=wrap;html=1;fillColor=#FFFFFF;fontColor=#333333;strokeColor=#666666;labelBackgroundColor=none;" vertex="1" parent="1">
          <mxGeometry x="65" y="960" width="614.5" height="79" as="geometry" />
        </mxCell>
        <mxCell id="0JFA8KRPkaBfpKAx8EYZ-6" value="" style="endArrow=classic;html=1;rounded=0;entryX=0.588;entryY=0;entryDx=0;entryDy=0;entryPerimeter=0;exitX=0.2;exitY=0.998;exitDx=0;exitDy=0;exitPerimeter=0;fontColor=default;labelBackgroundColor=none;strokeColor=#000000;" edge="1" parent="1">
          <mxGeometry width="50" height="50" relative="1" as="geometry">
            <mxPoint x="278" y="880" as="sourcePoint" />
            <mxPoint x="278" y="960" as="targetPoint" />
            <Array as="points">
              <mxPoint x="278" y="900" />
            </Array>
          </mxGeometry>
        </mxCell>
        <mxCell id="0JFA8KRPkaBfpKAx8EYZ-7" style="edgeStyle=orthogonalEdgeStyle;rounded=0;orthogonalLoop=1;jettySize=auto;html=1;fontColor=default;labelBackgroundColor=none;strokeColor=#000000;" edge="1" parent="1">
          <mxGeometry relative="1" as="geometry">
            <mxPoint x="599.99" y="960" as="sourcePoint" />
            <mxPoint x="599.99" y="880" as="targetPoint" />
            <Array as="points">
              <mxPoint x="600.49" y="921" />
              <mxPoint x="600.49" y="921" />
            </Array>
          </mxGeometry>
        </mxCell>
        <mxCell id="0JFA8KRPkaBfpKAx8EYZ-8" style="edgeStyle=orthogonalEdgeStyle;rounded=0;orthogonalLoop=1;jettySize=auto;html=1;exitX=1;exitY=0;exitDx=0;exitDy=0;entryX=0;entryY=0.25;entryDx=0;entryDy=0;" edge="1" parent="1" source="0JFA8KRPkaBfpKAx8EYZ-9" target="0JFA8KRPkaBfpKAx8EYZ-35">
          <mxGeometry relative="1" as="geometry">
            <Array as="points">
              <mxPoint x="642" y="290" />
              <mxPoint x="678" y="290" />
            </Array>
          </mxGeometry>
        </mxCell>
        <mxCell id="0JFA8KRPkaBfpKAx8EYZ-9" value="" style="rounded=1;whiteSpace=wrap;html=1;fillColor=#FFFFFF;strokeWidth=1;strokeColor=#000000;" vertex="1" parent="1">
          <mxGeometry x="249" y="286" width="393" height="37" as="geometry" />
        </mxCell>
        <mxCell id="0JFA8KRPkaBfpKAx8EYZ-10" value="&lt;font face=&quot;Times New Roman&quot; color=&quot;#000000&quot;&gt;&lt;span style=&quot;font-size: 14px;&quot;&gt;Authentication &amp;amp; Authorization&lt;/span&gt;&lt;/font&gt;" style="text;html=1;align=center;verticalAlign=middle;whiteSpace=wrap;rounded=0;" vertex="1" parent="1">
          <mxGeometry x="308" y="289.5" width="275" height="30" as="geometry" />
        </mxCell>
        <mxCell id="0JFA8KRPkaBfpKAx8EYZ-11" value="" style="rounded=1;whiteSpace=wrap;html=1;fillColor=#FFFFFF;strokeColor=#000000;" vertex="1" parent="1">
          <mxGeometry x="229" y="145" width="107" height="45" as="geometry" />
        </mxCell>
        <mxCell id="0JFA8KRPkaBfpKAx8EYZ-12" value="&lt;span style=&quot;color: rgb(0, 0, 0);&quot;&gt;&lt;font face=&quot;Times New Roman&quot;&gt;Customer View&lt;/font&gt;&lt;/span&gt;" style="text;html=1;align=center;verticalAlign=middle;whiteSpace=wrap;rounded=0;" vertex="1" parent="1">
          <mxGeometry x="252.5" y="152.5" width="60" height="30" as="geometry" />
        </mxCell>
        <mxCell id="0JFA8KRPkaBfpKAx8EYZ-13" value="" style="rounded=1;whiteSpace=wrap;html=1;fillColor=#FFFFFF;strokeColor=#000000;" vertex="1" parent="1">
          <mxGeometry x="546" y="145" width="107" height="45" as="geometry" />
        </mxCell>
        <mxCell id="0JFA8KRPkaBfpKAx8EYZ-14" value="&lt;font face=&quot;Times New Roman&quot; color=&quot;#000000&quot;&gt;STAFF View&lt;/font&gt;" style="text;html=1;align=center;verticalAlign=middle;whiteSpace=wrap;rounded=0;" vertex="1" parent="1">
          <mxGeometry x="569.5" y="152.5" width="60" height="30" as="geometry" />
        </mxCell>
        <mxCell id="0JFA8KRPkaBfpKAx8EYZ-15" value="" style="rounded=1;whiteSpace=wrap;html=1;fillColor=#FFFFFF;strokeColor=#000000;" vertex="1" parent="1">
          <mxGeometry x="249" y="334" width="180" height="376" as="geometry" />
        </mxCell>
        <mxCell id="0JFA8KRPkaBfpKAx8EYZ-16" value="" style="rounded=1;whiteSpace=wrap;html=1;fillColor=#FFFFFF;strokeColor=#000000;" vertex="1" parent="1">
          <mxGeometry x="275.5" y="349" width="129.5" height="341" as="geometry" />
        </mxCell>
        <mxCell id="0JFA8KRPkaBfpKAx8EYZ-18" value="" style="rounded=1;whiteSpace=wrap;html=1;fillColor=#FFFFFF;strokeColor=#000000;" vertex="1" parent="1">
          <mxGeometry x="280.5" y="418" width="120" height="26" as="geometry" />
        </mxCell>
        <mxCell id="0JFA8KRPkaBfpKAx8EYZ-19" value="" style="rounded=1;whiteSpace=wrap;html=1;fillColor=#FFFFFF;strokeColor=#000000;" vertex="1" parent="1">
          <mxGeometry x="280" y="512.5" width="120" height="26" as="geometry" />
        </mxCell>
        <mxCell id="0JFA8KRPkaBfpKAx8EYZ-21" value="&lt;font face=&quot;Times New Roman&quot; style=&quot;font-size: 13px;&quot;&gt;&lt;span style=&quot;color: rgb(0, 0, 0); text-align: left; background-color: initial;&quot;&gt;Manage data&lt;/span&gt;&lt;br&gt;&lt;/font&gt;&lt;font face=&quot;Architects Daughter&quot; color=&quot;#000000&quot;&gt;&lt;span style=&quot;font-size: 14px;&quot;&gt;&lt;br&gt;&lt;/span&gt;&lt;/font&gt;" style="text;html=1;align=center;verticalAlign=middle;whiteSpace=wrap;rounded=0;" vertex="1" parent="1">
          <mxGeometry x="280.5" y="422" width="126" height="30" as="geometry" />
        </mxCell>
        <mxCell id="0JFA8KRPkaBfpKAx8EYZ-22" value="&lt;div style=&quot;font-size: 13px;&quot;&gt;&lt;font face=&quot;Times New Roman&quot; style=&quot;font-size: 13px;&quot;&gt;&lt;br&gt;&lt;/font&gt;&lt;/div&gt;&lt;div style=&quot;font-size: 13px;&quot;&gt;&lt;span style=&quot;background-color: initial; color: rgb(0, 0, 0); text-align: left;&quot;&gt;&lt;font face=&quot;Times New Roman&quot; style=&quot;font-size: 13px;&quot;&gt;Manage user&lt;/font&gt;&lt;/span&gt;&lt;br&gt;&lt;/div&gt;" style="text;html=1;align=center;verticalAlign=middle;whiteSpace=wrap;rounded=0;" vertex="1" parent="1">
          <mxGeometry x="271" y="500.5" width="138" height="30" as="geometry" />
        </mxCell>
        <mxCell id="0JFA8KRPkaBfpKAx8EYZ-23" value="&lt;font face=&quot;Times New Roman&quot;&gt;&lt;span style=&quot;font-size: 13px;&quot;&gt;Insurance Management&lt;/span&gt;&lt;/font&gt;" style="text;html=1;align=center;verticalAlign=middle;whiteSpace=wrap;rounded=0;" vertex="1" parent="1">
          <mxGeometry x="291.75" y="356" width="97" height="30" as="geometry" />
        </mxCell>
        <mxCell id="0JFA8KRPkaBfpKAx8EYZ-24" value="" style="rounded=1;whiteSpace=wrap;html=1;fontColor=#FFFFFF;strokeColor=#000000;fillColor=#FFFFFF;" vertex="1" parent="1">
          <mxGeometry x="360.25" y="824.75" width="153.5" height="50.5" as="geometry" />
        </mxCell>
        <mxCell id="0JFA8KRPkaBfpKAx8EYZ-25" value="&lt;font style=&quot;font-size: 13px;&quot; face=&quot;Times New Roman&quot; color=&quot;#000000&quot;&gt;Data Access Component&lt;/font&gt;" style="text;html=1;align=center;verticalAlign=middle;whiteSpace=wrap;rounded=0;" vertex="1" parent="1">
          <mxGeometry x="383.5" y="835" width="112" height="30" as="geometry" />
        </mxCell>
        <mxCell id="0JFA8KRPkaBfpKAx8EYZ-26" value="" style="shape=cylinder3;whiteSpace=wrap;html=1;boundedLbl=1;backgroundOutline=1;size=15;fillColor=#FFFFFF;strokeColor=#000000;" vertex="1" parent="1">
          <mxGeometry x="409.5" y="964.5" width="60" height="70" as="geometry" />
        </mxCell>
        <mxCell id="0JFA8KRPkaBfpKAx8EYZ-27" value="&lt;font color=&quot;#000000&quot;&gt;MongoDB&lt;/font&gt;" style="text;html=1;align=center;verticalAlign=middle;whiteSpace=wrap;rounded=0;" vertex="1" parent="1">
          <mxGeometry x="409.5" y="997" width="60" height="30" as="geometry" />
        </mxCell>
        <mxCell id="0JFA8KRPkaBfpKAx8EYZ-28" value="" style="rounded=1;whiteSpace=wrap;html=1;fillColor=#FFFFFF;strokeColor=#000000;" vertex="1" parent="1">
          <mxGeometry x="462" y="334" width="180" height="254" as="geometry" />
        </mxCell>
        <mxCell id="0JFA8KRPkaBfpKAx8EYZ-29" value="" style="rounded=1;whiteSpace=wrap;html=1;fillColor=#FFFFFF;strokeColor=#000000;" vertex="1" parent="1">
          <mxGeometry x="487.25" y="349" width="129.5" height="224" as="geometry" />
        </mxCell>
        <mxCell id="0JFA8KRPkaBfpKAx8EYZ-30" value="" style="rounded=1;whiteSpace=wrap;html=1;strokeColor=#000000;fillColor=#FFFFFF;" vertex="1" parent="1">
          <mxGeometry x="492.62" y="406" width="118.75" height="46" as="geometry" />
        </mxCell>
        <mxCell id="0JFA8KRPkaBfpKAx8EYZ-31" value="&lt;font style=&quot;font-size: 13px;&quot; color=&quot;#000000&quot; face=&quot;Times New Roman&quot;&gt;Make Transitions&lt;/font&gt;" style="text;html=1;align=center;verticalAlign=middle;whiteSpace=wrap;rounded=0;" vertex="1" parent="1">
          <mxGeometry x="523" y="356" width="60" height="30" as="geometry" />
        </mxCell>
        <mxCell id="0JFA8KRPkaBfpKAx8EYZ-32" value="&lt;font face=&quot;Times New Roman&quot;&gt;&lt;span style=&quot;font-size: 13px;&quot;&gt;Deposit money&lt;/span&gt;&lt;/font&gt;" style="text;html=1;align=center;verticalAlign=middle;whiteSpace=wrap;rounded=0;" vertex="1" parent="1">
          <mxGeometry x="503.49" y="414" width="97" height="30" as="geometry" />
        </mxCell>
        <mxCell id="0JFA8KRPkaBfpKAx8EYZ-33" value="" style="rounded=1;whiteSpace=wrap;html=1;strokeColor=#000000;fillColor=#FFFFFF;" vertex="1" parent="1">
          <mxGeometry x="492.62" y="502" width="118.75" height="46" as="geometry" />
        </mxCell>
        <mxCell id="0JFA8KRPkaBfpKAx8EYZ-34" value="&lt;font style=&quot;font-size: 13px;&quot; color=&quot;#000000&quot; face=&quot;Times New Roman&quot;&gt;Transfer money&lt;/font&gt;" style="text;html=1;align=center;verticalAlign=middle;whiteSpace=wrap;rounded=0;" vertex="1" parent="1">
          <mxGeometry x="503.49" y="510" width="97" height="30" as="geometry" />
        </mxCell>
        <mxCell id="0JFA8KRPkaBfpKAx8EYZ-35" value="&lt;span style=&quot;color: rgb(0, 0, 0); font-family: &amp;quot;Times New Roman&amp;quot;;&quot;&gt;OAUTH2&amp;nbsp;&lt;/span&gt;&lt;div&gt;&lt;span style=&quot;color: rgb(0, 0, 0); font-family: &amp;quot;Times New Roman&amp;quot;;&quot;&gt;System&amp;nbsp;&lt;/span&gt;&lt;/div&gt;&lt;div&gt;&lt;span style=&quot;color: rgb(0, 0, 0); font-family: &amp;quot;Times New Roman&amp;quot;;&quot;&gt;Provided by Google&lt;/span&gt;&lt;/div&gt;" style="whiteSpace=wrap;html=1;fillColor=#FFFFFF;strokeColor=#000000;rounded=1;strokeWidth=1;" vertex="1" parent="1">
          <mxGeometry x="714" y="274.5" width="120" height="60" as="geometry" />
        </mxCell>
        <mxCell id="0JFA8KRPkaBfpKAx8EYZ-36" value="&lt;span style=&quot;color: rgb(0, 0, 0); font-family: &amp;quot;Times New Roman&amp;quot;;&quot;&gt;Zalopay&lt;/span&gt;" style="whiteSpace=wrap;html=1;fillColor=#FFFFFF;strokeColor=#000000;rounded=1;strokeWidth=1;" vertex="1" parent="1">
          <mxGeometry x="714" y="399" width="120" height="60" as="geometry" />
        </mxCell>
        <mxCell id="0JFA8KRPkaBfpKAx8EYZ-37" value="" style="endArrow=classic;html=1;rounded=0;entryX=0;entryY=0.5;entryDx=0;entryDy=0;strokeColor=#000000;" edge="1" parent="1" target="0JFA8KRPkaBfpKAx8EYZ-36">
          <mxGeometry width="50" height="50" relative="1" as="geometry">
            <mxPoint x="642" y="429" as="sourcePoint" />
            <mxPoint x="449" y="339" as="targetPoint" />
          </mxGeometry>
        </mxCell>
        <mxCell id="0JFA8KRPkaBfpKAx8EYZ-38" value="&lt;font style=&quot;font-size: 17px;&quot; color=&quot;#000000&quot; face=&quot;Times New Roman&quot;&gt;Presentation Layer&lt;/font&gt;" style="text;html=1;align=center;verticalAlign=middle;whiteSpace=wrap;rounded=0;" vertex="1" parent="1">
          <mxGeometry x="77" y="155" width="133" height="30" as="geometry" />
        </mxCell>
        <mxCell id="0JFA8KRPkaBfpKAx8EYZ-39" value="&lt;font style=&quot;font-size: 17px;&quot; color=&quot;#000000&quot; face=&quot;Times New Roman&quot;&gt;Business Layer&lt;/font&gt;" style="text;html=1;align=center;verticalAlign=middle;whiteSpace=wrap;rounded=0;" vertex="1" parent="1">
          <mxGeometry x="86" y="429" width="133" height="30" as="geometry" />
        </mxCell>
        <mxCell id="0JFA8KRPkaBfpKAx8EYZ-40" value="&lt;font style=&quot;font-size: 17px;&quot; color=&quot;#000000&quot; face=&quot;Times New Roman&quot;&gt;Persistence Layer&lt;/font&gt;" style="text;html=1;align=center;verticalAlign=middle;whiteSpace=wrap;rounded=0;" vertex="1" parent="1">
          <mxGeometry x="86" y="835" width="133" height="30" as="geometry" />
        </mxCell>
        <mxCell id="0JFA8KRPkaBfpKAx8EYZ-41" value="&lt;font style=&quot;font-size: 17px;&quot; color=&quot;#000000&quot; face=&quot;Times New Roman&quot;&gt;Database Layer&lt;/font&gt;" style="text;html=1;align=center;verticalAlign=middle;whiteSpace=wrap;rounded=0;" vertex="1" parent="1">
          <mxGeometry x="86" y="990" width="133" height="30" as="geometry" />
        </mxCell>
        <mxCell id="0JFA8KRPkaBfpKAx8EYZ-43" value="&lt;span style=&quot;color: rgba(0, 0, 0, 0); font-family: monospace; font-size: 0px; text-align: start; text-wrap: nowrap;&quot;&gt;%3CmxGraphModel%3E%3Croot%3E%3CmxCell%20id%3D%220%22%2F%3E%3CmxCell%20id%3D%221%22%20parent%3D%220%22%2F%3E%3CmxCell%20id%3D%222%22%20value%3D%22%26lt%3Bspan%20style%3D%26quot%3Bcolor%3A%20rgb(0%2C%200%2C%200)%3B%20text-align%3A%20left%3B%20background-color%3A%20initial%3B%26quot%3B%26gt%3B%26lt%3Bfont%20style%3D%26quot%3Bfont-size%3A%2013px%3B%26quot%3B%26gt%3BManage%20document%26lt%3B%2Ffont%26gt%3B%26lt%3B%2Fspan%26gt%3B%22%20style%3D%22text%3Bhtml%3D1%3Balign%3Dcenter%3BverticalAlign%3Dmiddle%3BwhiteSpace%3Dwrap%3Brounded%3D0%3BfontFamily%3DTimes%20New%20Roman%3B%22%20vertex%3D%221%22%20parent%3D%221%22%3E%3CmxGeometry%20x%3D%22287.5%22%20y%3D%22573%22%20width%3D%22106%22%20height%3D%2230%22%20as%3D%22geometry%22%2F%3E%3C%2FmxCell%3E%3C%2Froot%3E%3C%2FmxGraphModel%3E&lt;/span&gt;" style="rounded=1;whiteSpace=wrap;html=1;" vertex="1" parent="1">
          <mxGeometry x="280.5" y="621.5" width="119" height="27" as="geometry" />
        </mxCell>
        <mxCell id="bCTGjkmbjEsDlk8qxZf0-10" style="edgeStyle=orthogonalEdgeStyle;rounded=0;orthogonalLoop=1;jettySize=auto;html=1;exitX=1;exitY=0.25;exitDx=0;exitDy=0;" edge="1" parent="1" source="0JFA8KRPkaBfpKAx8EYZ-45" target="bCTGjkmbjEsDlk8qxZf0-6">
          <mxGeometry relative="1" as="geometry">
            <Array as="points">
              <mxPoint x="600" y="628" />
              <mxPoint x="600" y="628" />
            </Array>
          </mxGeometry>
        </mxCell>
        <mxCell id="bCTGjkmbjEsDlk8qxZf0-24" style="edgeStyle=orthogonalEdgeStyle;rounded=0;orthogonalLoop=1;jettySize=auto;html=1;exitX=1;exitY=0.75;exitDx=0;exitDy=0;entryX=0.5;entryY=1;entryDx=0;entryDy=0;" edge="1" parent="1" source="0JFA8KRPkaBfpKAx8EYZ-45" target="bCTGjkmbjEsDlk8qxZf0-9">
          <mxGeometry relative="1" as="geometry">
            <mxPoint x="850" y="730" as="targetPoint" />
            <Array as="points">
              <mxPoint x="396" y="720" />
              <mxPoint x="774" y="720" />
            </Array>
          </mxGeometry>
        </mxCell>
        <mxCell id="0JFA8KRPkaBfpKAx8EYZ-45" value="Manage chatbox" style="text;html=1;align=center;verticalAlign=middle;whiteSpace=wrap;rounded=0;" vertex="1" parent="1">
          <mxGeometry x="284.5" y="620" width="111" height="30" as="geometry" />
        </mxCell>
        <mxCell id="0JFA8KRPkaBfpKAx8EYZ-49" value="" style="endArrow=classic;html=1;rounded=0;entryX=1;entryY=0.75;entryDx=0;entryDy=0;" edge="1" parent="1" target="0JFA8KRPkaBfpKAx8EYZ-9">
          <mxGeometry width="50" height="50" relative="1" as="geometry">
            <mxPoint x="710" y="314" as="sourcePoint" />
            <mxPoint x="754" y="195" as="targetPoint" />
          </mxGeometry>
        </mxCell>
        <mxCell id="0JFA8KRPkaBfpKAx8EYZ-50" value="" style="endArrow=classic;html=1;rounded=0;exitX=0;exitY=0.75;exitDx=0;exitDy=0;" edge="1" parent="1" source="0JFA8KRPkaBfpKAx8EYZ-36">
          <mxGeometry width="50" height="50" relative="1" as="geometry">
            <mxPoint x="680" y="443" as="sourcePoint" />
            <mxPoint x="642" y="443" as="targetPoint" />
          </mxGeometry>
        </mxCell>
        <mxCell id="bCTGjkmbjEsDlk8qxZf0-25" style="edgeStyle=orthogonalEdgeStyle;rounded=0;orthogonalLoop=1;jettySize=auto;html=1;exitX=0;exitY=0.5;exitDx=0;exitDy=0;entryX=0.5;entryY=0;entryDx=0;entryDy=0;" edge="1" parent="1" source="bCTGjkmbjEsDlk8qxZf0-6" target="0JFA8KRPkaBfpKAx8EYZ-45">
          <mxGeometry relative="1" as="geometry">
            <mxPoint x="690" y="620" as="targetPoint" />
            <Array as="points">
              <mxPoint x="714" y="590" />
              <mxPoint x="340" y="590" />
            </Array>
          </mxGeometry>
        </mxCell>
        <mxCell id="bCTGjkmbjEsDlk8qxZf0-6" value="&lt;font face=&quot;Times New Roman&quot;&gt;Google Gemini&lt;/font&gt;" style="whiteSpace=wrap;html=1;fillColor=#FFFFFF;strokeColor=#000000;rounded=1;strokeWidth=1;" vertex="1" parent="1">
          <mxGeometry x="714" y="538.5" width="120" height="60" as="geometry" />
        </mxCell>
        <mxCell id="bCTGjkmbjEsDlk8qxZf0-13" style="edgeStyle=orthogonalEdgeStyle;rounded=0;orthogonalLoop=1;jettySize=auto;html=1;exitX=0;exitY=0.25;exitDx=0;exitDy=0;entryX=0.5;entryY=1;entryDx=0;entryDy=0;" edge="1" parent="1" source="bCTGjkmbjEsDlk8qxZf0-9" target="0JFA8KRPkaBfpKAx8EYZ-45">
          <mxGeometry relative="1" as="geometry">
            <Array as="points">
              <mxPoint x="714" y="680" />
              <mxPoint x="340" y="680" />
            </Array>
          </mxGeometry>
        </mxCell>
        <mxCell id="bCTGjkmbjEsDlk8qxZf0-9" value="&lt;font face=&quot;Times New Roman&quot;&gt;Local Model&lt;/font&gt;&lt;div&gt;&lt;font face=&quot;Times New Roman&quot;&gt;(paraphase-MiniLM-L6-v2)&lt;/font&gt;&lt;/div&gt;" style="whiteSpace=wrap;html=1;fillColor=#FFFFFF;strokeColor=#000000;rounded=1;strokeWidth=1;" vertex="1" parent="1">
          <mxGeometry x="714" y="640" width="120" height="60" as="geometry" />
        </mxCell>
        <mxCell id="bCTGjkmbjEsDlk8qxZf0-15" value="" style="endArrow=classic;html=1;rounded=0;entryX=0.588;entryY=0;entryDx=0;entryDy=0;entryPerimeter=0;exitX=0.2;exitY=0.998;exitDx=0;exitDy=0;exitPerimeter=0;fontColor=default;labelBackgroundColor=none;strokeColor=#000000;" edge="1" parent="1">
          <mxGeometry width="50" height="50" relative="1" as="geometry">
            <mxPoint x="275.5" y="740" as="sourcePoint" />
            <mxPoint x="275.5" y="820" as="targetPoint" />
            <Array as="points">
              <mxPoint x="275.5" y="760" />
            </Array>
          </mxGeometry>
        </mxCell>
        <mxCell id="bCTGjkmbjEsDlk8qxZf0-16" style="edgeStyle=orthogonalEdgeStyle;rounded=0;orthogonalLoop=1;jettySize=auto;html=1;fontColor=default;labelBackgroundColor=none;strokeColor=#000000;" edge="1" parent="1">
          <mxGeometry relative="1" as="geometry">
            <mxPoint x="600.49" y="820" as="sourcePoint" />
            <mxPoint x="600.49" y="740" as="targetPoint" />
            <Array as="points">
              <mxPoint x="600.99" y="781" />
              <mxPoint x="600.99" y="781" />
            </Array>
          </mxGeometry>
        </mxCell>
        <mxCell id="bCTGjkmbjEsDlk8qxZf0-18" style="edgeStyle=orthogonalEdgeStyle;rounded=0;orthogonalLoop=1;jettySize=auto;html=1;" edge="1" parent="1" source="0JFA8KRPkaBfpKAx8EYZ-12">
          <mxGeometry relative="1" as="geometry">
            <mxPoint x="282" y="260" as="targetPoint" />
          </mxGeometry>
        </mxCell>
        <mxCell id="bCTGjkmbjEsDlk8qxZf0-19" style="edgeStyle=orthogonalEdgeStyle;rounded=0;orthogonalLoop=1;jettySize=auto;html=1;entryX=0.869;entryY=0.004;entryDx=0;entryDy=0;entryPerimeter=0;" edge="1" parent="1" source="0JFA8KRPkaBfpKAx8EYZ-14" target="0JFA8KRPkaBfpKAx8EYZ-3">
          <mxGeometry relative="1" as="geometry" />
        </mxCell>
      </root>
    </mxGraphModel>
  </diagram>
  <diagram id="3qDVg5ImqxMoPsfJTCL-" name="Page-2">
    <mxGraphModel dx="1428" dy="749" grid="1" gridSize="10" guides="1" tooltips="1" connect="1" arrows="1" fold="1" page="1" pageScale="1" pageWidth="850" pageHeight="1100" math="0" shadow="0">
      <root>
        <mxCell id="0" />
        <mxCell id="1" parent="0" />
      </root>
    </mxGraphModel>
  </diagram>
</mxfile>
